<mxfile host="app.diagrams.net" modified="2023-05-26T15:39:14.340Z" agent="Mozilla/5.0 (Windows NT 10.0; Win64; x64) AppleWebKit/537.36 (KHTML, like Gecko) Chrome/113.0.0.0 Safari/537.36" etag="AYOe06sgyWyIeX2LVG87" version="21.1.5" type="github">
  <diagram name="Page-1" id="9dz_OU0nqz03ez0ocMIT">
    <mxGraphModel dx="2284" dy="796" grid="1" gridSize="10" guides="1" tooltips="1" connect="1" arrows="1" fold="1" page="1" pageScale="1" pageWidth="850" pageHeight="1100" math="0" shadow="0">
      <root>
        <mxCell id="0" />
        <mxCell id="1" parent="0" />
        <mxCell id="YpI6oe4IFo95CnMG9ItT-44" value="" style="whiteSpace=wrap;html=1;aspect=fixed;strokeWidth=1;dashed=1;" vertex="1" parent="1">
          <mxGeometry x="204" y="900" width="200" height="200" as="geometry" />
        </mxCell>
        <mxCell id="YpI6oe4IFo95CnMG9ItT-33" value="" style="rounded=0;whiteSpace=wrap;html=1;dashed=1;" vertex="1" parent="1">
          <mxGeometry x="710" y="550" width="220" height="60" as="geometry" />
        </mxCell>
        <mxCell id="YpI6oe4IFo95CnMG9ItT-26" value="" style="rounded=0;whiteSpace=wrap;html=1;dashed=1;" vertex="1" parent="1">
          <mxGeometry x="160" y="740" width="210" height="90" as="geometry" />
        </mxCell>
        <mxCell id="YpI6oe4IFo95CnMG9ItT-20" value="" style="whiteSpace=wrap;html=1;aspect=fixed;strokeWidth=1;dashed=1;" vertex="1" parent="1">
          <mxGeometry x="-150" y="410" width="160" height="160" as="geometry" />
        </mxCell>
        <mxCell id="YpI6oe4IFo95CnMG9ItT-1" value="" style="sketch=0;outlineConnect=0;fontColor=#232F3E;gradientColor=none;fillColor=#232F3D;strokeColor=none;dashed=0;verticalLabelPosition=bottom;verticalAlign=top;align=center;html=1;fontSize=12;fontStyle=0;aspect=fixed;pointerEvents=1;shape=mxgraph.aws4.client;" vertex="1" parent="1">
          <mxGeometry x="410" y="133.38" width="54" height="52.62" as="geometry" />
        </mxCell>
        <mxCell id="YpI6oe4IFo95CnMG9ItT-2" value="Client" style="text;html=1;strokeColor=none;fillColor=none;align=center;verticalAlign=middle;whiteSpace=wrap;rounded=0;" vertex="1" parent="1">
          <mxGeometry x="407" y="103.38" width="60" height="30" as="geometry" />
        </mxCell>
        <mxCell id="YpI6oe4IFo95CnMG9ItT-3" value="DNS" style="rounded=0;whiteSpace=wrap;html=1;" vertex="1" parent="1">
          <mxGeometry x="200" y="133.38" width="70" height="30" as="geometry" />
        </mxCell>
        <mxCell id="YpI6oe4IFo95CnMG9ItT-4" value="Load Balancer" style="rhombus;whiteSpace=wrap;html=1;" vertex="1" parent="1">
          <mxGeometry x="410" y="260" width="67" height="70" as="geometry" />
        </mxCell>
        <mxCell id="YpI6oe4IFo95CnMG9ItT-5" value="API &lt;br&gt;Gateway 1" style="shape=hexagon;perimeter=hexagonPerimeter2;whiteSpace=wrap;html=1;fixedSize=1;" vertex="1" parent="1">
          <mxGeometry x="360" y="380" width="80" height="50" as="geometry" />
        </mxCell>
        <mxCell id="YpI6oe4IFo95CnMG9ItT-6" value="API &lt;br&gt;Gateway 1" style="shape=hexagon;perimeter=hexagonPerimeter2;whiteSpace=wrap;html=1;fixedSize=1;" vertex="1" parent="1">
          <mxGeometry x="450" y="380" width="80" height="50" as="geometry" />
        </mxCell>
        <mxCell id="YpI6oe4IFo95CnMG9ItT-7" value="" style="rounded=0;whiteSpace=wrap;html=1;" vertex="1" parent="1">
          <mxGeometry x="290" y="510" width="93" height="40" as="geometry" />
        </mxCell>
        <mxCell id="YpI6oe4IFo95CnMG9ItT-8" value="" style="rounded=0;whiteSpace=wrap;html=1;" vertex="1" parent="1">
          <mxGeometry x="300" y="520" width="93" height="40" as="geometry" />
        </mxCell>
        <mxCell id="YpI6oe4IFo95CnMG9ItT-9" value="Metadata Server" style="rounded=0;whiteSpace=wrap;html=1;" vertex="1" parent="1">
          <mxGeometry x="310" y="530" width="93" height="40" as="geometry" />
        </mxCell>
        <mxCell id="YpI6oe4IFo95CnMG9ItT-10" value="" style="rounded=0;whiteSpace=wrap;html=1;" vertex="1" parent="1">
          <mxGeometry x="500" y="520" width="93" height="40" as="geometry" />
        </mxCell>
        <mxCell id="YpI6oe4IFo95CnMG9ItT-11" value="" style="rounded=0;whiteSpace=wrap;html=1;" vertex="1" parent="1">
          <mxGeometry x="510" y="530" width="93" height="40" as="geometry" />
        </mxCell>
        <mxCell id="YpI6oe4IFo95CnMG9ItT-12" value="Block Server" style="rounded=0;whiteSpace=wrap;html=1;" vertex="1" parent="1">
          <mxGeometry x="520" y="540" width="93" height="40" as="geometry" />
        </mxCell>
        <mxCell id="YpI6oe4IFo95CnMG9ItT-14" value="Notification Queue" style="shape=cylinder3;whiteSpace=wrap;html=1;boundedLbl=1;backgroundOutline=1;size=15;direction=south;" vertex="1" parent="1">
          <mxGeometry x="90" y="500" width="120" height="40" as="geometry" />
        </mxCell>
        <mxCell id="YpI6oe4IFo95CnMG9ItT-15" value="Notification Service" style="rounded=0;whiteSpace=wrap;html=1;" vertex="1" parent="1">
          <mxGeometry x="117" y="370" width="93" height="40" as="geometry" />
        </mxCell>
        <mxCell id="YpI6oe4IFo95CnMG9ItT-16" value="&lt;br&gt;Search Results Aggregation" style="whiteSpace=wrap;html=1;aspect=fixed;" vertex="1" parent="1">
          <mxGeometry x="-106.25" y="620" width="70" height="70" as="geometry" />
        </mxCell>
        <mxCell id="YpI6oe4IFo95CnMG9ItT-17" value="Storage" style="rounded=1;whiteSpace=wrap;html=1;" vertex="1" parent="1">
          <mxGeometry x="-113.75" y="520" width="85" height="30" as="geometry" />
        </mxCell>
        <mxCell id="YpI6oe4IFo95CnMG9ItT-18" value="Cache" style="rounded=1;whiteSpace=wrap;html=1;" vertex="1" parent="1">
          <mxGeometry x="-113.75" y="480" width="85" height="30" as="geometry" />
        </mxCell>
        <mxCell id="YpI6oe4IFo95CnMG9ItT-19" value="Search Index&lt;br&gt;(ElasticSearch, Solr)" style="rounded=1;whiteSpace=wrap;html=1;" vertex="1" parent="1">
          <mxGeometry x="-130" y="440" width="117.5" height="30" as="geometry" />
        </mxCell>
        <mxCell id="YpI6oe4IFo95CnMG9ItT-21" value="Feed Generation Queue" style="shape=cylinder3;whiteSpace=wrap;html=1;boundedLbl=1;backgroundOutline=1;size=15;direction=south;" vertex="1" parent="1">
          <mxGeometry x="-131.25" y="760" width="120" height="40" as="geometry" />
        </mxCell>
        <mxCell id="YpI6oe4IFo95CnMG9ItT-22" value="Metadata&lt;br&gt;DB" style="shape=cylinder3;whiteSpace=wrap;html=1;boundedLbl=1;backgroundOutline=1;size=15;" vertex="1" parent="1">
          <mxGeometry x="180" y="750" width="50" height="70" as="geometry" />
        </mxCell>
        <mxCell id="YpI6oe4IFo95CnMG9ItT-23" value="Metadata&lt;br&gt;DB" style="shape=cylinder3;whiteSpace=wrap;html=1;boundedLbl=1;backgroundOutline=1;size=15;" vertex="1" parent="1">
          <mxGeometry x="240" y="750" width="50" height="70" as="geometry" />
        </mxCell>
        <mxCell id="YpI6oe4IFo95CnMG9ItT-24" value="Metadata&lt;br&gt;DB" style="shape=cylinder3;whiteSpace=wrap;html=1;boundedLbl=1;backgroundOutline=1;size=15;" vertex="1" parent="1">
          <mxGeometry x="300" y="750" width="50" height="70" as="geometry" />
        </mxCell>
        <mxCell id="YpI6oe4IFo95CnMG9ItT-27" value="Shared Manager" style="rounded=0;whiteSpace=wrap;html=1;" vertex="1" parent="1">
          <mxGeometry x="40" y="680" width="93" height="40" as="geometry" />
        </mxCell>
        <mxCell id="YpI6oe4IFo95CnMG9ItT-28" value="Directory based partitioning" style="rounded=0;whiteSpace=wrap;html=1;" vertex="1" parent="1">
          <mxGeometry x="147" y="600" width="73" height="60" as="geometry" />
        </mxCell>
        <mxCell id="YpI6oe4IFo95CnMG9ItT-29" value="Redis/Memcached" style="sketch=0;outlineConnect=0;fontColor=#232F3E;gradientColor=none;fillColor=#2E27AD;strokeColor=none;dashed=0;verticalLabelPosition=bottom;verticalAlign=top;align=center;html=1;fontSize=12;fontStyle=0;aspect=fixed;pointerEvents=1;shape=mxgraph.aws4.cache_node;" vertex="1" parent="1">
          <mxGeometry x="323.75" y="620" width="45.5" height="45.5" as="geometry" />
        </mxCell>
        <mxCell id="YpI6oe4IFo95CnMG9ItT-30" value="CDN" style="rounded=1;whiteSpace=wrap;html=1;" vertex="1" parent="1">
          <mxGeometry x="730" y="380" width="100" height="40" as="geometry" />
        </mxCell>
        <mxCell id="YpI6oe4IFo95CnMG9ItT-31" value="Image/Thumbnail storage" style="rounded=0;whiteSpace=wrap;html=1;" vertex="1" parent="1">
          <mxGeometry x="720" y="560" width="100" height="40" as="geometry" />
        </mxCell>
        <mxCell id="YpI6oe4IFo95CnMG9ItT-32" value="Video&lt;br&gt;storage" style="rounded=0;whiteSpace=wrap;html=1;" vertex="1" parent="1">
          <mxGeometry x="826" y="560" width="93" height="40" as="geometry" />
        </mxCell>
        <mxCell id="YpI6oe4IFo95CnMG9ItT-34" value="Video Processing Queue" style="shape=cylinder3;whiteSpace=wrap;html=1;boundedLbl=1;backgroundOutline=1;size=15;direction=south;" vertex="1" parent="1">
          <mxGeometry x="510" y="765" width="120" height="40" as="geometry" />
        </mxCell>
        <mxCell id="YpI6oe4IFo95CnMG9ItT-35" value="Video Processing Service" style="rounded=0;whiteSpace=wrap;html=1;" vertex="1" parent="1">
          <mxGeometry x="773.5" y="750" width="93" height="40" as="geometry" />
        </mxCell>
        <mxCell id="YpI6oe4IFo95CnMG9ItT-36" value="Worker" style="whiteSpace=wrap;html=1;aspect=fixed;" vertex="1" parent="1">
          <mxGeometry x="735" y="840" width="50" height="50" as="geometry" />
        </mxCell>
        <mxCell id="YpI6oe4IFo95CnMG9ItT-37" value="Worker" style="whiteSpace=wrap;html=1;aspect=fixed;" vertex="1" parent="1">
          <mxGeometry x="795" y="840" width="50" height="50" as="geometry" />
        </mxCell>
        <mxCell id="YpI6oe4IFo95CnMG9ItT-38" value="Worker" style="whiteSpace=wrap;html=1;aspect=fixed;" vertex="1" parent="1">
          <mxGeometry x="855" y="840" width="50" height="50" as="geometry" />
        </mxCell>
        <mxCell id="YpI6oe4IFo95CnMG9ItT-39" value="Data Processing Systems&lt;br&gt;(Hadoop/MR, Spark)" style="rounded=0;whiteSpace=wrap;html=1;" vertex="1" parent="1">
          <mxGeometry x="230.75" y="910" width="149.25" height="60" as="geometry" />
        </mxCell>
        <mxCell id="YpI6oe4IFo95CnMG9ItT-40" value="Distributed Scheduler" style="rounded=0;whiteSpace=wrap;html=1;" vertex="1" parent="1">
          <mxGeometry x="255.75" y="980" width="99.25" height="50" as="geometry" />
        </mxCell>
        <mxCell id="YpI6oe4IFo95CnMG9ItT-41" value="Worker" style="whiteSpace=wrap;html=1;aspect=fixed;" vertex="1" parent="1">
          <mxGeometry x="220.75" y="1040" width="50" height="50" as="geometry" />
        </mxCell>
        <mxCell id="YpI6oe4IFo95CnMG9ItT-42" value="Worker" style="whiteSpace=wrap;html=1;aspect=fixed;" vertex="1" parent="1">
          <mxGeometry x="280" y="1040" width="50" height="50" as="geometry" />
        </mxCell>
        <mxCell id="YpI6oe4IFo95CnMG9ItT-43" value="Worker" style="whiteSpace=wrap;html=1;aspect=fixed;" vertex="1" parent="1">
          <mxGeometry x="340" y="1040" width="50" height="50" as="geometry" />
        </mxCell>
        <mxCell id="YpI6oe4IFo95CnMG9ItT-45" value="Database" style="shape=cylinder3;whiteSpace=wrap;html=1;boundedLbl=1;backgroundOutline=1;size=15;" vertex="1" parent="1">
          <mxGeometry x="806.5" y="1050" width="60" height="70" as="geometry" />
        </mxCell>
        <mxCell id="YpI6oe4IFo95CnMG9ItT-46" value="&lt;br&gt;Reports Viewing &amp;amp; Data analysis" style="whiteSpace=wrap;html=1;aspect=fixed;" vertex="1" parent="1">
          <mxGeometry x="806.5" y="940" width="75" height="75" as="geometry" />
        </mxCell>
        <mxCell id="YpI6oe4IFo95CnMG9ItT-47" value="Coordination Service (zookeeper, etcd, consul ...)" style="rounded=0;whiteSpace=wrap;html=1;" vertex="1" parent="1">
          <mxGeometry x="-120" y="890" width="120" height="60" as="geometry" />
        </mxCell>
        <mxCell id="YpI6oe4IFo95CnMG9ItT-48" value="Distributed Logging" style="rounded=0;whiteSpace=wrap;html=1;" vertex="1" parent="1">
          <mxGeometry x="-120" y="960" width="120" height="60" as="geometry" />
        </mxCell>
        <mxCell id="YpI6oe4IFo95CnMG9ItT-49" value="Distributed Tracing" style="rounded=0;whiteSpace=wrap;html=1;" vertex="1" parent="1">
          <mxGeometry x="-120" y="1030" width="120" height="60" as="geometry" />
        </mxCell>
      </root>
    </mxGraphModel>
  </diagram>
</mxfile>
